<?xml version="1.0" encoding="UTF-8" standalone="no"?>
<!-- Created with Inkscape (http://www.inkscape.org/) -->

<svg
   xmlns:dc="http://purl.org/dc/elements/1.1/"
   xmlns:cc="http://creativecommons.org/ns#"
   xmlns:rdf="http://www.w3.org/1999/02/22-rdf-syntax-ns#"
   xmlns:svg="http://www.w3.org/2000/svg"
   xmlns="http://www.w3.org/2000/svg"
   xmlns:sodipodi="http://sodipodi.sourceforge.net/DTD/sodipodi-0.dtd"
   xmlns:inkscape="http://www.inkscape.org/namespaces/inkscape"
   width="48"
   height="48"
   viewBox="0 0 12.7 12.7"
   version="1.1"
   id="svg6822"
   inkscape:version="0.92.1 r15371"
   sodipodi:docname="1.svg">
  <defs
     id="defs6816" />
  <sodipodi:namedview
     id="base"
     pagecolor="#ffffff"
     bordercolor="#666666"
     borderopacity="1.0"
     inkscape:pageopacity="0.0"
     inkscape:pageshadow="2"
     inkscape:zoom="15.839192"
     inkscape:cx="22.773475"
     inkscape:cy="20.600787"
     inkscape:document-units="mm"
     inkscape:current-layer="layer1"
     showgrid="false"
     inkscape:window-width="1920"
     inkscape:window-height="1015"
     inkscape:window-x="0"
     inkscape:window-y="0"
     inkscape:window-maximized="1"
     units="px" />
  <metadata
     id="metadata6819">
    <rdf:RDF>
      <cc:Work
         rdf:about="">
        <dc:format>image/svg+xml</dc:format>
        <dc:type
           rdf:resource="http://purl.org/dc/dcmitype/StillImage" />
        <dc:title />
      </cc:Work>
    </rdf:RDF>
  </metadata>
  <g
     inkscape:label="Layer 1"
     inkscape:groupmode="layer"
     id="layer1"
     transform="translate(0,-284.3)">
    <ellipse
       style="display:inline;opacity:1;fill:#aae3fd;fill-opacity:1;stroke:none;stroke-width:0.10694768;stroke-miterlimit:4;stroke-dasharray:none;stroke-opacity:1"
       id="path4506"
       cx="6.3113484"
       cy="290.72668"
       rx="5.9841394"
       ry="5.9712415"
       inkscape:export-filename="/home/dbachinin/src/nash.computer/app/javascript/images/1.png"
       inkscape:export-xdpi="306.733"
       inkscape:export-ydpi="306.733" />
    <path
       style="display:inline;fill:#aae3fd;fill-opacity:1;fill-rule:evenodd;stroke:#0093d7;stroke-width:0.19304633;stroke-linecap:butt;stroke-linejoin:miter;stroke-miterlimit:4;stroke-dasharray:none;stroke-opacity:1"
       d="m 4.7763864,293.85306 c 1.5994572,-2.94093 1.5994572,-3.04413 1.5994572,-3.04413 0,0 2.4249845,1.08352 2.7861517,0.98031 0.3611671,-0.10319 0.3095727,-0.15478 0.3095727,-0.15478 0,0 -0.9287183,3.14733 -1.3930765,3.25051 -0.4643584,0.10331 -3.3021051,-1.03191 -3.3021051,-1.03191 z"
       id="path4485"
       inkscape:connector-curvature="0"
       inkscape:export-filename="/home/dbachinin/src/nash.computer/app/javascript/images/1.png"
       inkscape:export-xdpi="306.733"
       inkscape:export-ydpi="306.733" />
    <path
       style="display:inline;fill:#aae3fd;fill-opacity:1;fill-rule:evenodd;stroke:#0093d7;stroke-width:0.19304633;stroke-linecap:butt;stroke-linejoin:miter;stroke-miterlimit:4;stroke-dasharray:none;stroke-opacity:1"
       d="m 4.466814,286.03799 c -0.7352346,1.74134 -1.5681271,3.13185 -1.5681271,3.13185 l 3.2062809,1.56332 1.2318403,-3.2634 z"
       id="path4487"
       inkscape:connector-curvature="0"
       sodipodi:nodetypes="ccccc"
       inkscape:export-filename="/home/dbachinin/src/nash.computer/app/javascript/images/1.png"
       inkscape:export-xdpi="306.733"
       inkscape:export-ydpi="306.733" />
    <path
       style="display:inline;fill:#aae3fd;fill-opacity:1;fill-rule:evenodd;stroke:#0093d7;stroke-width:0.19304633;stroke-linecap:butt;stroke-linejoin:miter;stroke-miterlimit:4;stroke-dasharray:none;stroke-opacity:1"
       d="m 7.6431554,287.5939 c 2.7861516,1.65106 3.3537016,1.34148 3.3537016,1.34148 l -1.525289,2.69908 -2.9814842,-0.86928 z"
       id="path4489"
       inkscape:connector-curvature="0"
       sodipodi:nodetypes="ccccc"
       inkscape:export-filename="/home/dbachinin/src/nash.computer/app/javascript/images/1.png"
       inkscape:export-xdpi="306.733"
       inkscape:export-ydpi="306.733" />
    <path
       style="display:inline;fill:#aae3fd;fill-opacity:1;fill-rule:evenodd;stroke:#0093d7;stroke-width:0.19304633;stroke-linecap:butt;stroke-linejoin:miter;stroke-miterlimit:4;stroke-dasharray:none;stroke-opacity:1"
       d="m 2.8609073,289.30784 c 0,0 -1.2111631,2.65494 -1.8303081,2.65494 -0.61914459,0 3.3975183,1.8145 3.3975183,1.8145 l 1.5607607,-2.90223 z"
       id="path4491"
       inkscape:connector-curvature="0"
       sodipodi:nodetypes="csccc"
       inkscape:export-filename="/home/dbachinin/src/nash.computer/app/javascript/images/1.png"
       inkscape:export-xdpi="306.733"
       inkscape:export-ydpi="306.733" />
    <path
       style="display:inline;fill:none;fill-rule:evenodd;stroke:#fdfdfd;stroke-width:0.05107683px;stroke-linecap:butt;stroke-linejoin:miter;stroke-opacity:1"
       d="m 8.8008281,293.11945 c -0.025849,-0.002 -0.00861,0.0301 -0.012902,0.0388 -0.00133,0.002 -0.00501,0.006 -0.0065,0.007 -0.00187,0.006 0.00133,0.009 0,0.013 -0.015564,0.0468 0.0018,-0.01 -0.012902,0.0194 -0.00102,0.002 0,0.006 0,0.007 0,0.006 0.00109,0.0364 0,0.0388 -0.00133,0.002 -0.00501,0.006 -0.0065,0.007 -0.00102,0.002 0.00102,0.006 0,0.007 -0.00265,0.006 -0.010175,0.008 -0.012902,0.013 -0.00187,0.006 0.00306,0.01 0,0.013 -0.00156,7.7e-4 -0.00493,-7.9e-4 -0.0065,0 -0.00306,0.002 0.00133,0.009 0,0.013 -0.00306,0.009 -0.00861,0.0172 -0.012902,0.0257"
       id="path4514"
       inkscape:connector-curvature="0"
       inkscape:export-filename="/home/dbachinin/src/nash.computer/app/javascript/images/1.png"
       inkscape:export-xdpi="306.733"
       inkscape:export-ydpi="306.733" />
    <path
       style="display:inline;fill:none;fill-rule:evenodd;stroke:#ffffff;stroke-width:0.05107683px;stroke-linecap:butt;stroke-linejoin:miter;stroke-opacity:1"
       d="m 8.7298806,293.31938 c -0.034904,0.0779 -0.038698,0.0931 -0.038698,0.14834 0,0.006 0.00133,0.009 0,0.013 -0.00149,0.006 -0.016886,0.0144 -0.019357,0.0194 -0.00102,0.002 0,0.006 0,0.007 0,0.007 0.00125,0.0349 0,0.0388 -0.00391,0.0118 -0.00548,0.0118 -0.012902,0.0194 -0.00211,0.002 -0.00501,0.006 -0.0065,0.007 -0.00102,0.002 0,0.006 0,0.007 -0.00211,0.006 -0.00384,0.009 -0.0065,0.013 -0.00337,0.006 -0.010175,0.008 -0.012902,0.013 -0.00102,0.002 6.585e-4,0.006 0,0.007 -0.00391,0.0118 -0.00555,0.0118 -0.012902,0.0194 -0.00234,0.002 -0.025278,0.0257 -0.025794,0.0257 -0.00211,0 0,-0.006 0,-0.007"
       id="path4516"
       inkscape:connector-curvature="0"
       inkscape:export-filename="/home/dbachinin/src/nash.computer/app/javascript/images/1.png"
       inkscape:export-xdpi="306.733"
       inkscape:export-ydpi="306.733" />
    <path
       style="display:inline;fill:none;fill-rule:evenodd;stroke:#ffffff;stroke-width:0.05107683px;stroke-linecap:butt;stroke-linejoin:miter;stroke-opacity:1"
       d="m 8.6589402,293.43546 c -0.00951,0.0118 -0.011355,0.0268 -0.019357,0.0388 -0.00337,0.006 -0.010175,0.008 -0.012902,0.013 -0.00211,0.006 0.00211,0.0346 0,0.0388 -0.00265,0.006 -0.010175,0.008 -0.012902,0.013 -0.00102,0.002 0.00102,0.006 0,0.007 -0.00391,0.008 -0.015477,0.0118 -0.019357,0.0194 -0.00102,0.002 0.00102,0.006 0,0.007 -0.02139,0.0215 0.00306,-0.006 -0.0065,0.013 -0.00234,0.006 -0.013436,0.01 -0.012902,0.013 0.00391,0.0179 0.012902,0.0345 0.019342,0.0515"
       id="path4518"
       inkscape:connector-curvature="0"
       inkscape:export-filename="/home/dbachinin/src/nash.computer/app/javascript/images/1.png"
       inkscape:export-xdpi="306.733"
       inkscape:export-ydpi="306.733" />
    <rect
       style="display:inline;opacity:1;fill:#ffffff;fill-opacity:1;stroke:#ffffff;stroke-width:0.06639989;stroke-miterlimit:4;stroke-dasharray:none;stroke-opacity:1"
       id="rect4531"
       width="0.49015626"
       height="0.27732521"
       x="8.5944452"
       y="293.07428"
       inkscape:export-filename="/home/dbachinin/src/nash.computer/app/javascript/images/1.png"
       inkscape:export-xdpi="306.733"
       inkscape:export-ydpi="306.733" />
    <rect
       style="display:inline;opacity:1;fill:#ffffff;fill-opacity:1;stroke:#ffffff;stroke-width:0.1199454;stroke-miterlimit:4;stroke-dasharray:none;stroke-opacity:1"
       id="rect4533"
       width="0.63322449"
       height="0.37617844"
       x="11.830823"
       y="289.25964"
       transform="matrix(0.9417581,0.33629108,-0.00865357,0.99996256,0,0)"
       inkscape:export-filename="/home/dbachinin/src/nash.computer/app/javascript/images/1.png"
       inkscape:export-xdpi="306.733"
       inkscape:export-ydpi="306.733" />
    <path
       style="fill:#aae3fd;fill-opacity:1;fill-rule:evenodd;stroke:#0093d7;stroke-width:0.2;stroke-linecap:butt;stroke-linejoin:miter;stroke-opacity:1;stroke-miterlimit:4;stroke-dasharray:none"
       d="m 0.93366803,290.72827 -0.20065887,-0.74792 0.78439424,-1.5688 0.4925267,-1.36811 v 0 l 9.3215229,3.24704 0.02424,0.59944 0.09884,0.29275 -0.743295,3.30339 z"
       id="path6143"
       inkscape:connector-curvature="0"
       inkscape:export-filename="/home/dbachinin/src/nash.computer/app/javascript/images/1.png"
       inkscape:export-xdpi="306.733"
       inkscape:export-ydpi="306.733" />
    <path
       style="fill:#aae3fd;fill-opacity:1;fill-rule:evenodd;stroke:#0093d7;stroke-width:0.2;stroke-linecap:butt;stroke-linejoin:miter;stroke-opacity:1;stroke-miterlimit:4;stroke-dasharray:none"
       d="m 0.73300916,289.98035 c 1.31340414,-2.51734 1.27692094,-2.93691 1.27692094,-2.93691 0,0 4.5239487,1.82419 6.5670224,2.37143 2.0430735,0.54725 2.7545005,0.87561 2.7545005,0.87561 l -0.948571,3.0646 c 0,0 -3.611861,-0.49253 -6.0562523,-1.91538 -1.8638486,-1.08492 -3.59362054,-1.45935 -3.59362054,-1.45935 z"
       id="path4494"
       inkscape:connector-curvature="0"
       sodipodi:nodetypes="ccsccsc"
       inkscape:export-filename="/home/dbachinin/src/nash.computer/app/javascript/images/1.png"
       inkscape:export-xdpi="306.733"
       inkscape:export-ydpi="306.733" />
    <path
       style="fill:none;fill-rule:evenodd;stroke:#0093d7;stroke-width:0.2;stroke-linecap:butt;stroke-linejoin:miter;stroke-opacity:1;stroke-miterlimit:4;stroke-dasharray:none"
       d="m 0.97471212,290.27907 9.52674088,3.83761 0.854244,-3.22676"
       id="path4496"
       inkscape:connector-curvature="0"
       sodipodi:nodetypes="ccc"
       inkscape:export-filename="/home/dbachinin/src/nash.computer/app/javascript/images/1.png"
       inkscape:export-xdpi="306.733"
       inkscape:export-ydpi="306.733" />
    <path
       style="fill:none;fill-rule:evenodd;stroke:#0093d7;stroke-width:0.2;stroke-linecap:butt;stroke-linejoin:miter;stroke-opacity:1;stroke-miterlimit:4;stroke-dasharray:none"
       d="m 0.93366803,290.72827 9.77756597,3.75779 0.743293,-3.30339"
       id="path4498"
       inkscape:connector-curvature="0"
       sodipodi:nodetypes="ccc"
       inkscape:export-filename="/home/dbachinin/src/nash.computer/app/javascript/images/1.png"
       inkscape:export-xdpi="306.733"
       inkscape:export-ydpi="306.733" />
    <path
       style="display:inline;fill:none;fill-rule:evenodd;stroke:#0093d7;stroke-width:0.2;stroke-linecap:butt;stroke-linejoin:miter;stroke-opacity:1;stroke-miterlimit:4;stroke-dasharray:none"
       d="m 2.2986796,287.72036 c -0.8664822,1.75119 -0.8938446,1.77856 -0.8938446,1.77856 0,0 0.5563724,0.10031 0.4195597,0.3922 -0.136813,0.29187 -0.072968,0.19154 -0.072968,0.19154 l 7.451745,2.87308 c 0,0 -0.00906,-0.72056 0.8573613,-0.36484 l 0.209782,0.082 0.53813,-1.91539 c 0,0 -0.720549,0.0639 -0.565495,-0.51989 -0.182417,-0.0456 -0.392196,-0.12773 -0.392196,-0.12773 l -6.9318567,-2.48087 c 0,0 -0.2918673,0.38307 -0.6202185,0.0913 z"
       id="path6079-0"
       inkscape:connector-curvature="0"
       sodipodi:nodetypes="ccscccccccccc"
       inkscape:export-filename="/home/dbachinin/src/nash.computer/app/javascript/images/1.png"
       inkscape:export-xdpi="306.733"
       inkscape:export-ydpi="306.733" />
    <path
       style="display:inline;fill:none;fill-rule:evenodd;stroke:#0093d7;stroke-width:0.20559432;stroke-linecap:butt;stroke-linejoin:miter;stroke-miterlimit:4;stroke-dasharray:none;stroke-opacity:1"
       d="m 5.26733,290.95119 0.7629789,-2.02901 c 0,0 1.0530461,0.38149 1.1995915,0.61915 0.042429,0.0687 0.038698,0.45145 -0.4256616,0.56754 -0.1483368,-0.0292 -1.4575699,-0.50304 -1.4575699,-0.50304 v 0"
       id="path4500-5-3-9-9"
       inkscape:connector-curvature="0"
       sodipodi:nodetypes="ccsccc"
       inkscape:export-filename="/home/dbachinin/src/nash.computer/app/javascript/images/1.png"
       inkscape:export-xdpi="306.733"
       inkscape:export-ydpi="306.733" />
    <path
       style="display:inline;fill:none;fill-rule:evenodd;stroke:#0093d7;stroke-width:0.20559432;stroke-linecap:butt;stroke-linejoin:miter;stroke-miterlimit:4;stroke-dasharray:none;stroke-opacity:1"
       d="m 5.1673798,290.03257 0.8738994,0.29988"
       id="path4502-6-5-2-2"
       inkscape:connector-curvature="0"
       sodipodi:nodetypes="cc"
       inkscape:export-filename="/home/dbachinin/src/nash.computer/app/javascript/images/1.png"
       inkscape:export-xdpi="306.733"
       inkscape:export-ydpi="306.733" />
  </g>
</svg>
