<?xml version="1.0" encoding="UTF-8" standalone="no"?>
<!-- Created with Inkscape (http://www.inkscape.org/) -->

<svg
   xmlns:dc="http://purl.org/dc/elements/1.1/"
   xmlns:cc="http://creativecommons.org/ns#"
   xmlns:rdf="http://www.w3.org/1999/02/22-rdf-syntax-ns#"
   xmlns:svg="http://www.w3.org/2000/svg"
   xmlns="http://www.w3.org/2000/svg"
   xmlns:sodipodi="http://sodipodi.sourceforge.net/DTD/sodipodi-0.dtd"
   xmlns:inkscape="http://www.inkscape.org/namespaces/inkscape"
   width="48"
   height="48"
   viewBox="0 0 12.7 12.7"
   version="1.1"
   id="svg6822"
   inkscape:version="0.92.1 r15371"
   sodipodi:docname="2.svg">
  <defs
     id="defs6816" />
  <sodipodi:namedview
     id="base"
     pagecolor="#ffffff"
     bordercolor="#666666"
     borderopacity="1.0"
     inkscape:pageopacity="0.0"
     inkscape:pageshadow="2"
     inkscape:zoom="15.839192"
     inkscape:cx="15.565364"
     inkscape:cy="22.475986"
     inkscape:document-units="mm"
     inkscape:current-layer="layer1"
     showgrid="false"
     inkscape:window-width="1920"
     inkscape:window-height="1015"
     inkscape:window-x="0"
     inkscape:window-y="0"
     inkscape:window-maximized="1"
     units="px" />
  <metadata
     id="metadata6819">
    <rdf:RDF>
      <cc:Work
         rdf:about="">
        <dc:format>image/svg+xml</dc:format>
        <dc:type
           rdf:resource="http://purl.org/dc/dcmitype/StillImage" />
        <dc:title />
      </cc:Work>
    </rdf:RDF>
  </metadata>
  <g
     inkscape:label="Layer 1"
     inkscape:groupmode="layer"
     id="layer1"
     transform="translate(0,-284.3)">
    <ellipse
       style="display:inline;opacity:1;fill:#0093d7;fill-opacity:0.99607843;stroke:none;stroke-width:0.10527354;stroke-miterlimit:4;stroke-dasharray:none;stroke-opacity:1"
       id="path4506-3"
       cx="6.3662949"
       cy="290.64594"
       rx="5.8904653"
       ry="5.877769"
       inkscape:export-filename="/home/dbachinin/src/nash.computer/app/javascript/images/2.png"
       inkscape:export-xdpi="306.733"
       inkscape:export-ydpi="306.733" />
    <path
       style="display:inline;fill:none;fill-rule:evenodd;stroke:#000000;stroke-width:0.19002441;stroke-linecap:butt;stroke-linejoin:miter;stroke-miterlimit:4;stroke-dasharray:none;stroke-opacity:1"
       d="m 3.6046548,287.3616 c 0,0 0.032063,2.55465 0.5130704,3.91215 0.5451357,2.07367 1.1180061,2.94622 1.5178303,3.40978 l 0.737538,0.85513 c 0.038423,-0.0386 0.600309,-0.55546 1.0261379,-1.19718 0.2957759,-0.44574 0.7000769,-1.62351 0.9620057,-2.69361 0.365317,-1.49253 0.8123592,-4.21145 0.8123592,-4.21145 0,0 -1.1743134,0.80929 -3.0142828,0.79099 -1.7744499,-0.0176 -2.5546587,-0.86581 -2.5546587,-0.86581 z"
       id="path4577-6-3"
       inkscape:connector-curvature="0"
       sodipodi:nodetypes="ccscsscsc"
       inkscape:export-filename="/home/dbachinin/src/nash.computer/app/javascript/images/2.png"
       inkscape:export-xdpi="306.733"
       inkscape:export-ydpi="306.733" />
    <path
       style="display:inline;fill:none;fill-rule:evenodd;stroke:#000000;stroke-width:0.10413852;stroke-linecap:butt;stroke-linejoin:miter;stroke-miterlimit:4;stroke-dasharray:none;stroke-opacity:1"
       d="m 5.7892062,295.07147 c 0.1567746,-0.14018 0.596257,-0.20508 0.596257,-0.20508 v -0.002"
       id="path5229-0"
       inkscape:connector-curvature="0"
       inkscape:export-filename="/home/dbachinin/src/nash.computer/app/javascript/images/2.png"
       inkscape:export-xdpi="306.733"
       inkscape:export-ydpi="306.733" />
    <path
       style="display:inline;fill:#aae3fd;fill-opacity:1;fill-rule:evenodd;stroke:#0093d7;stroke-width:0.19002441;stroke-linecap:butt;stroke-linejoin:miter;stroke-miterlimit:4;stroke-dasharray:none;stroke-opacity:1"
       d="m 3.0523935,286.31633 c 0,0 0.038091,3.03455 0.6094526,4.64707 0.647543,2.4632 1.3280304,3.49967 1.8029652,4.05031 l 0.8760879,1.01577 c 0.045645,-0.0458 0.7130826,-0.6598 1.2189052,-1.42206 0.3513409,-0.52947 0.8315903,-1.92849 1.1427232,-3.19962 0.4339475,-1.7729 0.9649677,-5.0026 0.9649677,-5.0026 0,0 -1.3949162,0.96131 -3.580535,0.93956 -2.1077917,-0.021 -3.0345668,-1.02843 -3.0345668,-1.02843 z"
       id="path4577"
       inkscape:connector-curvature="0"
       sodipodi:nodetypes="ccscsscsc"
       inkscape:export-filename="/home/dbachinin/src/nash.computer/app/javascript/images/2.png"
       inkscape:export-xdpi="306.733"
       inkscape:export-ydpi="306.733" />
    <path
       style="display:inline;fill:none;fill-rule:evenodd;stroke:#0093d7;stroke-width:0.19002441;stroke-linecap:butt;stroke-linejoin:miter;stroke-miterlimit:4;stroke-dasharray:none;stroke-opacity:1"
       d="m 3.5350751,287.44241 c 0,0 0.032063,2.55466 0.5130691,3.91214 0.5451357,2.07367 1.1180062,2.94622 1.5178317,3.40978 l 0.7375366,0.85513 c 0.038423,-0.0386 0.6003104,-0.55545 1.0261392,-1.19717 0.295772,-0.44574 0.700073,-1.62351 0.9620017,-2.69361 0.3653171,-1.49252 0.8123592,-4.21145 0.8123592,-4.21145 0,0 -1.1743119,0.80928 -3.0142788,0.79099 -1.7744499,-0.0177 -2.5546587,-0.86581 -2.5546587,-0.86581 z"
       id="path4577-6"
       inkscape:connector-curvature="0"
       sodipodi:nodetypes="ccscsscsc"
       inkscape:export-filename="/home/dbachinin/src/nash.computer/app/javascript/images/2.png"
       inkscape:export-xdpi="306.733"
       inkscape:export-ydpi="306.733" />
    <rect
       style="display:inline;opacity:1;fill:#ffffff;fill-opacity:1;stroke:#ffffff;stroke-width:0.10736381;stroke-miterlimit:4;stroke-dasharray:none;stroke-opacity:1"
       id="rect4634"
       width="0.63530648"
       height="0.97294247"
       x="3.4375274"
       y="290.37259"
       inkscape:export-filename="/home/dbachinin/src/nash.computer/app/javascript/images/2.png"
       inkscape:export-xdpi="306.733"
       inkscape:export-ydpi="306.733" />
    <rect
       style="display:inline;opacity:1;fill:#ffffff;fill-opacity:1;stroke:#ffffff;stroke-width:0.10736381;stroke-miterlimit:4;stroke-dasharray:none;stroke-opacity:1"
       id="rect4636"
       width="0.66024059"
       height="0.93957311"
       x="7.8137431"
       y="292.1188"
       inkscape:export-filename="/home/dbachinin/src/nash.computer/app/javascript/images/2.png"
       inkscape:export-xdpi="306.733"
       inkscape:export-ydpi="306.733" />
    <path
       style="display:inline;fill:none;fill-rule:evenodd;stroke:#0093d7;stroke-width:0.13320713;stroke-linecap:butt;stroke-linejoin:miter;stroke-miterlimit:4;stroke-dasharray:none;stroke-opacity:1"
       d="m 4.6009286,292.9129 c 0.3792149,-0.33067 1.4422616,-0.48374 1.4422616,-0.48374 v -0.006"
       id="path5229"
       inkscape:connector-curvature="0"
       inkscape:export-filename="/home/dbachinin/src/nash.computer/app/javascript/images/2.png"
       inkscape:export-xdpi="306.733"
       inkscape:export-ydpi="306.733" />
    <path
       style="display:inline;fill:none;fill-rule:evenodd;stroke:#0093d7;stroke-width:0.13320713;stroke-linecap:butt;stroke-linejoin:miter;stroke-miterlimit:4;stroke-dasharray:none;stroke-opacity:1"
       d="m 4.7171645,293.28746 c 0.3776324,-0.32658 1.4362409,-0.47777 1.4362409,-0.47777 v -0.006"
       id="path5229-2"
       inkscape:connector-curvature="0"
       inkscape:export-filename="/home/dbachinin/src/nash.computer/app/javascript/images/2.png"
       inkscape:export-xdpi="306.733"
       inkscape:export-ydpi="306.733" />
    <path
       style="display:inline;fill:none;fill-rule:evenodd;stroke:#0093d7;stroke-width:0.13320713;stroke-linecap:butt;stroke-linejoin:miter;stroke-miterlimit:4;stroke-dasharray:none;stroke-opacity:1"
       d="m 4.9037144,293.64316 c 0.3500677,-0.30017 1.3430516,-0.45319 1.3430516,-0.45319 l -1.009e-4,-0.005"
       id="path5229-9"
       inkscape:connector-curvature="0"
       inkscape:export-filename="/home/dbachinin/src/nash.computer/app/javascript/images/2.png"
       inkscape:export-xdpi="306.733"
       inkscape:export-ydpi="306.733" />
    <path
       style="display:inline;fill:none;fill-rule:evenodd;stroke:#0093d7;stroke-width:0.13320713;stroke-linecap:butt;stroke-linejoin:miter;stroke-miterlimit:4;stroke-dasharray:none;stroke-opacity:1"
       d="m 5.1110169,294.14925 c 0.3004651,-0.23381 1.2023003,-0.44408 1.2023003,-0.44408 l -4.554e-4,-0.004"
       id="path5229-1"
       inkscape:connector-curvature="0"
       inkscape:export-filename="/home/dbachinin/src/nash.computer/app/javascript/images/2.png"
       inkscape:export-xdpi="306.733"
       inkscape:export-ydpi="306.733" />
    <path
       style="display:inline;fill:none;fill-rule:evenodd;stroke:#0093d7;stroke-width:0.12973392;stroke-linecap:butt;stroke-linejoin:miter;stroke-miterlimit:4;stroke-dasharray:none;stroke-opacity:1"
       d="m 5.4232026,294.62031 c 0.2409677,-0.27049 0.9164671,-0.39573 0.9164671,-0.39573 v -0.005"
       id="path5229-27"
       inkscape:connector-curvature="0"
       inkscape:export-filename="/home/dbachinin/src/nash.computer/app/javascript/images/2.png"
       inkscape:export-xdpi="306.733"
       inkscape:export-ydpi="306.733" />
    <path
       style="display:inline;fill:none;fill-rule:evenodd;stroke:#0093d7;stroke-width:0.13320713;stroke-linecap:butt;stroke-linejoin:miter;stroke-miterlimit:4;stroke-dasharray:none;stroke-opacity:1"
       d="m 4.3933354,292.48115 c 0.3776324,-0.32658 1.4362406,-0.47776 1.4362406,-0.47776 v -0.006"
       id="path5229-2-9"
       inkscape:connector-curvature="0"
       inkscape:export-filename="/home/dbachinin/src/nash.computer/app/javascript/images/2.png"
       inkscape:export-xdpi="306.733"
       inkscape:export-ydpi="306.733" />
    <rect
       style="display:inline;opacity:1;fill:#ffffff;fill-opacity:1;stroke:none;stroke-width:0.06536047;stroke-miterlimit:4;stroke-dasharray:none;stroke-opacity:1"
       id="rect5285"
       width="1.072891"
       height="0.29837796"
       x="5.2362666"
       y="291.8331"
       inkscape:export-filename="/home/dbachinin/src/nash.computer/app/javascript/images/2.png"
       inkscape:export-xdpi="306.733"
       inkscape:export-ydpi="306.733" />
    <path
       style="fill:#aae3fd;fill-opacity:1;fill-rule:evenodd;stroke:#0093d7;stroke-width:0.2;stroke-linecap:butt;stroke-linejoin:miter;stroke-opacity:1;stroke-miterlimit:4;stroke-dasharray:none"
       d="m 1.2680793,290.58703 -0.1975178,-0.7362 0.7721155,-1.54424 0.4848165,-1.34671 v 0 l 9.1756065,3.1962 0.02387,0.59009 0.09728,0.28815 -0.731658,3.25168 z"
       id="path6143-9"
       inkscape:connector-curvature="0"
       inkscape:export-filename="/home/dbachinin/src/nash.computer/app/javascript/images/2.png"
       inkscape:export-xdpi="306.733"
       inkscape:export-ydpi="306.733" />
    <path
       style="display:inline;fill:#aae3fd;fill-opacity:1;fill-rule:evenodd;stroke:#0093d7;stroke-width:0.2;stroke-linecap:butt;stroke-linejoin:miter;stroke-opacity:1;stroke-miterlimit:4;stroke-dasharray:none"
       d="m 1.0705615,289.85083 c 1.292845,-2.47796 1.256932,-2.89095 1.256932,-2.89095 0,0 4.4531324,1.79562 6.4642245,2.3343 2.011091,0.53869 2.711382,0.8619 2.711382,0.8619 l -0.93372,3.01665 c 0,0 -3.5553234,-0.48483 -5.961452,-1.8854 -1.8346723,-1.06794 -3.5373665,-1.4365 -3.5373665,-1.4365 z"
       id="path4494-7"
       inkscape:connector-curvature="0"
       sodipodi:nodetypes="ccsccsc"
       inkscape:export-filename="/home/dbachinin/src/nash.computer/app/javascript/images/2.png"
       inkscape:export-xdpi="306.733"
       inkscape:export-ydpi="306.733" />
    <path
       style="display:inline;fill:none;fill-rule:evenodd;stroke:#0093d7;stroke-width:0.2;stroke-linecap:butt;stroke-linejoin:miter;stroke-opacity:1;stroke-miterlimit:4;stroke-dasharray:none"
       d="m 1.3084811,290.14487 9.3776119,3.77753 0.840873,-3.17623"
       id="path4496-5"
       inkscape:connector-curvature="0"
       sodipodi:nodetypes="ccc"
       inkscape:export-filename="/home/dbachinin/src/nash.computer/app/javascript/images/2.png"
       inkscape:export-xdpi="306.733"
       inkscape:export-ydpi="306.733" />
    <path
       style="display:inline;fill:none;fill-rule:evenodd;stroke:#0093d7;stroke-width:0.2;stroke-linecap:butt;stroke-linejoin:miter;stroke-opacity:1;stroke-miterlimit:4;stroke-dasharray:none"
       d="m 2.6115435,287.62535 c -0.8529189,1.72378 -0.8798531,1.75072 -0.8798531,1.75072 0,0 0.5476637,0.0989 0.4129918,0.38606 -0.1346705,0.28731 -0.071826,0.18854 -0.071826,0.18854 l 7.3350987,2.82809 c 0,0 -0.00903,-0.70925 0.8439401,-0.35913 l 0.206496,0.0808 0.529708,-1.8854 c 0,0 -0.709268,0.0628 -0.556643,-0.51176 -0.179559,-0.0448 -0.386058,-0.12574 -0.386058,-0.12574 l -6.8233464,-2.44204 c 0,0 -0.2872988,0.37707 -0.6105093,0.0897 z"
       id="path6079"
       inkscape:connector-curvature="0"
       sodipodi:nodetypes="ccscccccccccc"
       inkscape:export-filename="/home/dbachinin/src/nash.computer/app/javascript/images/2.png"
       inkscape:export-xdpi="306.733"
       inkscape:export-ydpi="306.733" />
    <path
       style="display:inline;fill:none;fill-rule:evenodd;stroke:#0093d7;stroke-width:0.20237602;stroke-linecap:butt;stroke-linejoin:miter;stroke-miterlimit:4;stroke-dasharray:none;stroke-opacity:1"
       d="m 5.2672048,290.90417 0.7510348,-1.99725 c 0,0 1.0365628,0.37552 1.1808136,0.60946 0.041767,0.0677 0.038091,0.44439 -0.4189981,0.55867 -0.1460153,-0.0286 -1.4347538,-0.49519 -1.4347538,-0.49519 v 0"
       id="path4500-5-3-9-2"
       inkscape:connector-curvature="0"
       sodipodi:nodetypes="ccsccc"
       inkscape:export-filename="/home/dbachinin/src/nash.computer/app/javascript/images/2.png"
       inkscape:export-xdpi="306.733"
       inkscape:export-ydpi="306.733" />
    <path
       style="display:inline;fill:none;fill-rule:evenodd;stroke:#0093d7;stroke-width:0.20237602;stroke-linecap:butt;stroke-linejoin:miter;stroke-miterlimit:4;stroke-dasharray:none;stroke-opacity:1"
       d="m 5.1688189,289.99993 0.8602198,0.29521"
       id="path4502-6-5-2-8"
       inkscape:connector-curvature="0"
       sodipodi:nodetypes="cc"
       inkscape:export-filename="/home/dbachinin/src/nash.computer/app/javascript/images/2.png"
       inkscape:export-xdpi="306.733"
       inkscape:export-ydpi="306.733" />
  </g>
</svg>
