<?xml version="1.0" encoding="UTF-8" standalone="no"?>
<!-- Created with Inkscape (http://www.inkscape.org/) -->

<svg
   xmlns:dc="http://purl.org/dc/elements/1.1/"
   xmlns:cc="http://creativecommons.org/ns#"
   xmlns:rdf="http://www.w3.org/1999/02/22-rdf-syntax-ns#"
   xmlns:svg="http://www.w3.org/2000/svg"
   xmlns="http://www.w3.org/2000/svg"
   xmlns:sodipodi="http://sodipodi.sourceforge.net/DTD/sodipodi-0.dtd"
   xmlns:inkscape="http://www.inkscape.org/namespaces/inkscape"
   width="48"
   height="48"
   viewBox="0 0 12.7 12.7"
   version="1.1"
   id="svg6822"
   inkscape:version="0.92.1 r15371"
   sodipodi:docname="5.svg">
  <defs
     id="defs6816" />
  <sodipodi:namedview
     id="base"
     pagecolor="#ffffff"
     bordercolor="#666666"
     borderopacity="1.0"
     inkscape:pageopacity="0.0"
     inkscape:pageshadow="2"
     inkscape:zoom="11.2"
     inkscape:cx="6.568013"
     inkscape:cy="25.175332"
     inkscape:document-units="mm"
     inkscape:current-layer="layer1"
     showgrid="false"
     inkscape:window-width="1920"
     inkscape:window-height="1015"
     inkscape:window-x="0"
     inkscape:window-y="0"
     inkscape:window-maximized="1"
     units="px" />
  <metadata
     id="metadata6819">
    <rdf:RDF>
      <cc:Work
         rdf:about="">
        <dc:format>image/svg+xml</dc:format>
        <dc:type
           rdf:resource="http://purl.org/dc/dcmitype/StillImage" />
        <dc:title></dc:title>
      </cc:Work>
    </rdf:RDF>
  </metadata>
  <g
     inkscape:label="Layer 1"
     inkscape:groupmode="layer"
     id="layer1"
     transform="translate(0,-284.3)">
    <ellipse
       style="display:inline;opacity:1;fill:#0b0b0b;fill-opacity:1;stroke:#000000;stroke-width:0.10709909;stroke-miterlimit:4;stroke-dasharray:none;stroke-opacity:1"
       id="path4506-3-3-6"
       cx="6.3068709"
       cy="290.70892"
       rx="5.9926109"
       ry="5.9796944"
       inkscape:export-xdpi="306.733"
       inkscape:export-ydpi="306.733" />
    <g
       transform="matrix(0.01401883,0.01091678,-0.01091678,0.01401883,5.5549173,284.66883)"
       id="g5411"
       style="display:inline;fill:#f2f2f2;fill-opacity:1"
       inkscape:export-xdpi="306.733"
       inkscape:export-ydpi="306.733">
      <path
         inkscape:connector-curvature="0"
         d="M 302.597,0 H 108.966 C 80.66,0 57.651,23.026 57.651,51.315 v 379.509 c 0,28.289 23.009,51.316 51.315,51.316 h 264.206 c 28.273,0 51.316,-23.026 51.316,-51.316 V 121.449 Z m 70.575,450.698 H 108.966 c -10.97,0 -19.89,-8.905 -19.89,-19.874 V 51.315 c 0,-10.953 8.92,-19.858 19.89,-19.858 L 290.84,31.269 v 67.217 c 0,19.653 15.949,35.604 35.587,35.604 l 65.878,-0.189 0.727,296.925 c 0,10.967 -8.89,19.872 -19.86,19.872 z"
         id="path5395"
         style="fill:#f2f2f2;fill-opacity:1" />
      <path
         inkscape:connector-curvature="0"
         d="m 232.497,91.228 c 0,-4.654 -3.774,-8.429 -8.429,-8.429 h -97.47 c -4.655,0 -8.429,3.775 -8.429,8.429 v 97.459 c 0,4.654 3.774,8.429 8.429,8.429 h 97.47 c 4.655,0 8.429,-3.774 8.429,-8.429 z"
         id="path5397"
         style="fill:#f2f2f2;fill-opacity:1" />
      <path
         inkscape:connector-curvature="0"
         d="m 232.497,412.747 c 0,4.656 3.774,8.43 8.429,8.43 h 113.587 c 4.655,0 8.429,-3.773 8.429,-8.43 V 323.47 c 0,-4.655 -3.774,-8.429 -8.429,-8.429 H 240.926 c -4.655,0 -8.429,3.774 -8.429,8.429 z m 24.206,-73.498 h 82.033 v 57.723 h -82.033 z"
         id="path5399"
         style="fill:#f2f2f2;fill-opacity:1" />
      <path
         inkscape:connector-curvature="0"
         d="M 344.111,216.862 H 131.629 c -6.683,0 -12.103,5.421 -12.103,12.104 0,6.683 5.421,12.104 12.103,12.104 h 212.482 c 6.683,0 12.103,-5.421 12.103,-12.104 0,-6.683 -5.421,-12.104 -12.103,-12.104 z"
         id="path5401"
         style="fill:#f2f2f2;fill-opacity:1" />
      <path
         inkscape:connector-curvature="0"
         d="m 260.739,192.654 h 83.372 c 6.683,0 12.103,-5.421 12.103,-12.104 0,-6.683 -5.421,-12.104 -12.103,-12.104 h -83.372 c -6.684,0 -12.105,5.421 -12.105,12.104 0,6.683 5.421,12.104 12.105,12.104 z"
         id="path5403"
         style="fill:#f2f2f2;fill-opacity:1" />
      <path
         inkscape:connector-curvature="0"
         d="M 344.111,265.277 H 131.629 c -6.683,0 -12.103,5.421 -12.103,12.104 0,6.683 5.421,12.104 12.103,12.104 h 212.482 c 6.683,0 12.103,-5.421 12.103,-12.104 0,-6.683 -5.421,-12.104 -12.103,-12.104 z"
         id="path5405"
         style="fill:#f2f2f2;fill-opacity:1" />
      <path
         inkscape:connector-curvature="0"
         d="M 198.863,313.693 H 131.63 c -6.683,0 -12.103,5.421 -12.103,12.104 0,6.684 5.421,12.104 12.103,12.104 h 67.233 c 6.683,0 12.105,-5.421 12.105,-12.104 -10e-4,-6.683 -5.422,-12.104 -12.105,-12.104 z"
         id="path5407"
         style="fill:#f2f2f2;fill-opacity:1" />
      <path
         inkscape:connector-curvature="0"
         d="M 198.863,362.109 H 131.63 c -6.683,0 -12.103,5.421 -12.103,12.103 0,6.683 5.421,12.104 12.103,12.104 h 67.233 c 6.683,0 12.105,-5.421 12.105,-12.104 -10e-4,-6.682 -5.422,-12.103 -12.105,-12.103 z"
         id="path5409"
         style="fill:#f2f2f2;fill-opacity:1" />
    </g>
    <rect
       style="display:inline;opacity:1;fill:#ffffff;fill-opacity:1;stroke:none;stroke-width:0.18129644;stroke-miterlimit:4;stroke-dasharray:none;stroke-opacity:1"
       id="rect6077"
       width="10.810832"
       height="3.8877261"
       x="111.80489"
       y="266.25186"
       transform="matrix(0.93030608,0.36678412,-0.38233181,0.9240251,0,0)"
       inkscape:export-xdpi="306.733"
       inkscape:export-ydpi="306.733" />
    <path
       style="display:inline;fill:#ffffff;fill-opacity:1;fill-rule:evenodd;stroke:#000000;stroke-width:0.05114915px;stroke-linecap:butt;stroke-linejoin:miter;stroke-opacity:1"
       d="m 0.84329057,290.02496 c 1.31526353,-2.52092 1.27872993,-2.94108 1.27872993,-2.94108 0,0 4.5303529,1.82676 6.5763203,2.37478 2.0459642,0.54803 2.7583992,0.87684 2.7583992,0.87684 l -0.949912,3.06896 c 0,0 -3.6169769,-0.49322 -6.064829,-1.91809 -1.8664873,-1.08647 -3.59870843,-1.46141 -3.59870843,-1.46141 z"
       id="path4494-7-6-1"
       inkscape:connector-curvature="0"
       sodipodi:nodetypes="ccsccsc"
       inkscape:export-xdpi="306.733"
       inkscape:export-ydpi="306.733" />
    <path
       style="display:inline;fill:none;fill-rule:evenodd;stroke:#000000;stroke-width:0.05114915px;stroke-linecap:butt;stroke-linejoin:miter;stroke-opacity:1"
       d="m 1.0853364,290.32409 9.5402306,3.84304 0.855453,-3.2313"
       id="path4496-5-7-8"
       inkscape:connector-curvature="0"
       sodipodi:nodetypes="ccc"
       inkscape:export-xdpi="306.733"
       inkscape:export-ydpi="306.733" />
    <path
       style="display:inline;fill:none;fill-rule:evenodd;stroke:#000000;stroke-width:0.05114915px;stroke-linecap:butt;stroke-linejoin:miter;stroke-opacity:1"
       d="m 1.0442347,290.77393 9.7914083,3.76312 0.744346,-3.30808"
       id="path4498-3-5-7"
       inkscape:connector-curvature="0"
       sodipodi:nodetypes="ccc"
       inkscape:export-xdpi="306.733"
       inkscape:export-ydpi="306.733" />
    <path
       style="display:inline;fill:none;fill-rule:evenodd;stroke:#000000;stroke-width:0.20588541;stroke-linecap:butt;stroke-linejoin:miter;stroke-miterlimit:4;stroke-dasharray:none;stroke-opacity:1"
       d="m 5.0278319,291.07297 0.7640582,-2.03188 c 0,0 1.0545374,0.38204 1.2012905,0.62003 0.042487,0.0689 0.038753,0.4521 -0.4262642,0.56835 -0.148547,-0.0291 -1.4596337,-0.50377 -1.4596337,-0.50377 v 0"
       id="path4500-5-3-9"
       inkscape:connector-curvature="0"
       sodipodi:nodetypes="ccsccc"
       inkscape:export-xdpi="306.733"
       inkscape:export-ydpi="306.733" />
    <path
       style="display:inline;fill:none;fill-rule:evenodd;stroke:#000000;stroke-width:0.20588541;stroke-linecap:butt;stroke-linejoin:miter;stroke-miterlimit:4;stroke-dasharray:none;stroke-opacity:1"
       d="m 4.9277399,290.15306 0.8751366,0.30032"
       id="path4502-6-5-2"
       inkscape:connector-curvature="0"
       sodipodi:nodetypes="cc"
       inkscape:export-xdpi="306.733"
       inkscape:export-ydpi="306.733" />
    <path
       style="display:inline;fill:none;fill-rule:evenodd;stroke:#000000;stroke-width:0.05114915px;stroke-linecap:butt;stroke-linejoin:miter;stroke-opacity:1"
       d="m 2.3562907,287.76513 c -0.8677088,1.75369 -0.8951098,1.78109 -0.8951098,1.78109 0,0 0.5571601,0.10052 0.4201535,0.39275 -0.1370066,0.29228 -0.07307,0.19181 -0.07307,0.19181 l 7.4622953,2.87714 c 0,0 -0.00913,-0.72157 0.8585733,-0.36536 l 0.210079,0.0822 0.538892,-1.91808 c 0,0 -0.721567,0.0639 -0.566295,-0.52063 -0.182673,-0.0456 -0.3927516,-0.12787 -0.3927516,-0.12787 l -6.9416693,-2.48439 c 0,0 -0.2922809,0.38362 -0.6210969,0.0914 z"
       id="path6079-3"
       inkscape:connector-curvature="0"
       sodipodi:nodetypes="ccscccccccccc"
       inkscape:export-xdpi="306.733"
       inkscape:export-ydpi="306.733" />
  </g>
</svg>
