<?xml version="1.0" encoding="UTF-8" standalone="no"?>
<!-- Created with Inkscape (http://www.inkscape.org/) -->

<svg
   xmlns:dc="http://purl.org/dc/elements/1.1/"
   xmlns:cc="http://creativecommons.org/ns#"
   xmlns:rdf="http://www.w3.org/1999/02/22-rdf-syntax-ns#"
   xmlns:svg="http://www.w3.org/2000/svg"
   xmlns="http://www.w3.org/2000/svg"
   xmlns:sodipodi="http://sodipodi.sourceforge.net/DTD/sodipodi-0.dtd"
   xmlns:inkscape="http://www.inkscape.org/namespaces/inkscape"
   width="48"
   height="48"
   viewBox="0 0 12.7 12.7"
   version="1.1"
   id="svg6822"
   inkscape:version="0.92.1 r15371"
   sodipodi:docname="6.svg">
  <defs
     id="defs6816" />
  <sodipodi:namedview
     id="base"
     pagecolor="#ffffff"
     bordercolor="#666666"
     borderopacity="1.0"
     inkscape:pageopacity="0.0"
     inkscape:pageshadow="2"
     inkscape:zoom="7.9195959"
     inkscape:cx="31.212681"
     inkscape:cy="13.900863"
     inkscape:document-units="mm"
     inkscape:current-layer="layer1"
     showgrid="false"
     inkscape:window-width="1920"
     inkscape:window-height="1015"
     inkscape:window-x="0"
     inkscape:window-y="0"
     inkscape:window-maximized="1"
     units="px" />
  <metadata
     id="metadata6819">
    <rdf:RDF>
      <cc:Work
         rdf:about="">
        <dc:format>image/svg+xml</dc:format>
        <dc:type
           rdf:resource="http://purl.org/dc/dcmitype/StillImage" />
        <dc:title></dc:title>
      </cc:Work>
    </rdf:RDF>
  </metadata>
  <g
     inkscape:label="Layer 1"
     inkscape:groupmode="layer"
     id="layer1"
     transform="translate(0,-284.3)">
    <ellipse
       style="display:inline;opacity:1;fill:#fcfcfc;fill-opacity:1;stroke:#000000;stroke-width:0.11061403;stroke-miterlimit:4;stroke-dasharray:none;stroke-opacity:1"
       id="path4506-3-3-3"
       cx="6.3203201"
       cy="290.64005"
       rx="6.1892858"
       ry="6.1759448"
       inkscape:export-xdpi="306.733"
       inkscape:export-ydpi="306.733" />
    <path
       style="display:inline;fill:none;fill-rule:evenodd;stroke:#000000;stroke-width:0.19966428;stroke-linecap:butt;stroke-linejoin:miter;stroke-miterlimit:4;stroke-dasharray:none;stroke-opacity:1"
       d="m 3.4338555,287.08587 c 0,0 0.033694,2.68426 0.539097,4.11062 0.5727904,2.17885 1.1747224,3.09567 1.5948301,3.58276 l 0.7749522,0.89849 c 0.040375,-0.0405 0.6307628,-0.58362 1.0781941,-1.2579 0.3107798,-0.46834 0.7355911,-1.70585 1.0108069,-2.83025 0.3838501,-1.56823 0.8535704,-4.4251 0.8535704,-4.4251 0,0 -1.2338851,0.85034 -3.1671954,0.83111 -1.8644673,-0.0186 -2.6842553,-0.90973 -2.6842553,-0.90973 z"
       id="path4577-6-3-6"
       inkscape:connector-curvature="0"
       sodipodi:nodetypes="ccscsscsc"
       inkscape:export-xdpi="306.733"
       inkscape:export-ydpi="306.733" />
    <path
       style="display:inline;fill:none;fill-rule:evenodd;stroke:#000000;stroke-width:0.10942142;stroke-linecap:butt;stroke-linejoin:miter;stroke-miterlimit:4;stroke-dasharray:none;stroke-opacity:1"
       d="m 5.7292272,295.18686 c 0.1647277,-0.1473 0.6265059,-0.21548 0.6265059,-0.21548 v -0.003"
       id="path5229-0-1"
       inkscape:connector-curvature="0"
       inkscape:export-xdpi="306.733"
       inkscape:export-ydpi="306.733" />
    <path
       style="display:inline;fill:#ffffff;fill-opacity:1;fill-rule:evenodd;stroke:#000000;stroke-width:0.19966428;stroke-linecap:butt;stroke-linejoin:miter;stroke-miterlimit:4;stroke-dasharray:none;stroke-opacity:1"
       d="m 2.8535778,285.98756 c 0,0 0.040023,3.18852 0.6403696,4.88283 0.6803929,2.58815 1.3954014,3.67721 1.8944287,4.25579 l 0.9205319,1.06728 c 0.04796,-0.0481 0.7492569,-0.69325 1.2807398,-1.49419 0.3691631,-0.55633 0.8737766,-2.02633 1.2006927,-3.36195 0.4559614,-1.86282 1.0139189,-5.25637 1.0139189,-5.25637 0,0 -1.4656793,1.01009 -3.762172,0.98724 -2.2147193,-0.0221 -3.1885096,-1.08063 -3.1885096,-1.08063 z"
       id="path4577-2"
       inkscape:connector-curvature="0"
       sodipodi:nodetypes="ccscsscsc"
       inkscape:export-xdpi="306.733"
       inkscape:export-ydpi="306.733" />
    <path
       style="display:inline;fill:none;fill-rule:evenodd;stroke:#000000;stroke-width:0.19966428;stroke-linecap:butt;stroke-linejoin:miter;stroke-miterlimit:4;stroke-dasharray:none;stroke-opacity:1"
       d="m 3.3607456,287.17077 c 0,0 0.033694,2.68427 0.5390971,4.11062 0.5727904,2.17887 1.1747223,3.09568 1.5948299,3.58275 l 0.7749521,0.89851 c 0.040375,-0.0405 0.6307628,-0.58363 1.0781947,-1.2579 0.3107761,-0.46835 0.7355879,-1.70587 1.0108031,-2.83026 0.3838507,-1.56823 0.8535705,-4.42509 0.8535705,-4.42509 0,0 -1.2338849,0.85034 -3.1671922,0.8311 -1.8644672,-0.0186 -2.6842552,-0.90973 -2.6842552,-0.90973 z"
       id="path4577-6-9"
       inkscape:connector-curvature="0"
       sodipodi:nodetypes="ccscsscsc"
       inkscape:export-xdpi="306.733"
       inkscape:export-ydpi="306.733" />
    <path
       style="display:inline;fill:none;fill-rule:evenodd;stroke:#000000;stroke-width:0.13996467;stroke-linecap:butt;stroke-linejoin:miter;stroke-miterlimit:4;stroke-dasharray:none;stroke-opacity:1"
       d="m 4.4806685,292.9188 c 0.3984533,-0.34745 1.515427,-0.5083 1.515427,-0.5083 v -0.006"
       id="path5229-94"
       inkscape:connector-curvature="0"
       inkscape:export-xdpi="306.733"
       inkscape:export-ydpi="306.733" />
    <path
       style="display:inline;fill:none;fill-rule:evenodd;stroke:#000000;stroke-width:0.13996467;stroke-linecap:butt;stroke-linejoin:miter;stroke-miterlimit:4;stroke-dasharray:none;stroke-opacity:1"
       d="m 4.6028022,293.31234 c 0.3967896,-0.34313 1.5091003,-0.502 1.5091003,-0.502 v -0.006"
       id="path5229-2-7"
       inkscape:connector-curvature="0"
       inkscape:export-xdpi="306.733"
       inkscape:export-ydpi="306.733" />
    <path
       style="display:inline;fill:none;fill-rule:evenodd;stroke:#000000;stroke-width:0.13996467;stroke-linecap:butt;stroke-linejoin:miter;stroke-miterlimit:4;stroke-dasharray:none;stroke-opacity:1"
       d="m 4.798816,293.68611 c 0.3678254,-0.31541 1.4111825,-0.4762 1.4111825,-0.4762 l -1.055e-4,-0.005"
       id="path5229-9-8"
       inkscape:connector-curvature="0"
       inkscape:export-xdpi="306.733"
       inkscape:export-ydpi="306.733" />
    <path
       style="display:inline;fill:none;fill-rule:evenodd;stroke:#000000;stroke-width:0.13996467;stroke-linecap:butt;stroke-linejoin:miter;stroke-miterlimit:4;stroke-dasharray:none;stroke-opacity:1"
       d="m 5.0166337,294.21786 c 0.3157077,-0.24567 1.2632935,-0.46661 1.2632935,-0.46661 l -4.792e-4,-0.003"
       id="path5229-1-4"
       inkscape:connector-curvature="0"
       inkscape:export-xdpi="306.733"
       inkscape:export-ydpi="306.733" />
    <path
       style="display:inline;fill:none;fill-rule:evenodd;stroke:#000000;stroke-width:0.13631527;stroke-linecap:butt;stroke-linejoin:miter;stroke-miterlimit:4;stroke-dasharray:none;stroke-opacity:1"
       d="m 5.3446566,294.71283 c 0.2531919,-0.28422 0.9629588,-0.41581 0.9629588,-0.41581 v -0.005"
       id="path5229-27-5"
       inkscape:connector-curvature="0"
       inkscape:export-xdpi="306.733"
       inkscape:export-ydpi="306.733" />
    <path
       style="display:inline;fill:none;fill-rule:evenodd;stroke:#000000;stroke-width:0.13996467;stroke-linecap:butt;stroke-linejoin:miter;stroke-miterlimit:4;stroke-dasharray:none;stroke-opacity:1"
       d="m 4.2625451,292.46514 c 0.3967896,-0.34315 1.5091007,-0.502 1.5091007,-0.502 v -0.006"
       id="path5229-2-9-0"
       inkscape:connector-curvature="0"
       inkscape:export-xdpi="306.733"
       inkscape:export-ydpi="306.733" />
    <rect
       style="display:inline;opacity:1;fill:#282828;fill-opacity:1;stroke:#ffffff;stroke-width:0.26071599;stroke-miterlimit:4;stroke-dasharray:none;stroke-opacity:1"
       id="rect6249"
       width="10.108716"
       height="3.1405718"
       x="206.94051"
       y="197.10551"
       ry="0.75242865"
       transform="rotate(45.612631)"
       inkscape:export-xdpi="306.733"
       inkscape:export-ydpi="306.733" />
    <rect
       style="display:inline;opacity:1;fill:#282828;fill-opacity:1;stroke:#ffffff;stroke-width:0.26071599;stroke-miterlimit:4;stroke-dasharray:none;stroke-opacity:1"
       id="rect6249-0"
       width="10.108716"
       height="3.1405718"
       x="192.94943"
       y="-214.34105"
       ry="0.75242865"
       transform="rotate(135.84788)"
       inkscape:export-xdpi="306.733"
       inkscape:export-ydpi="306.733" />
  </g>
</svg>
