<?xml version="1.0" encoding="UTF-8" standalone="no"?>
<!-- Created with Inkscape (http://www.inkscape.org/) -->

<svg
   xmlns:dc="http://purl.org/dc/elements/1.1/"
   xmlns:cc="http://creativecommons.org/ns#"
   xmlns:rdf="http://www.w3.org/1999/02/22-rdf-syntax-ns#"
   xmlns:svg="http://www.w3.org/2000/svg"
   xmlns="http://www.w3.org/2000/svg"
   xmlns:sodipodi="http://sodipodi.sourceforge.net/DTD/sodipodi-0.dtd"
   xmlns:inkscape="http://www.inkscape.org/namespaces/inkscape"
   width="48"
   height="48"
   viewBox="0 0 12.7 12.7"
   version="1.1"
   id="svg6822"
   inkscape:version="0.92.1 r15371"
   sodipodi:docname="9.svg">
  <defs
     id="defs6816" />
  <sodipodi:namedview
     id="base"
     pagecolor="#ffffff"
     bordercolor="#666666"
     borderopacity="1.0"
     inkscape:pageopacity="0.0"
     inkscape:pageshadow="2"
     inkscape:zoom="11.2"
     inkscape:cx="40.649211"
     inkscape:cy="36.910859"
     inkscape:document-units="mm"
     inkscape:current-layer="layer1"
     showgrid="false"
     inkscape:window-width="1920"
     inkscape:window-height="1015"
     inkscape:window-x="0"
     inkscape:window-y="0"
     inkscape:window-maximized="1"
     units="px" />
  <metadata
     id="metadata6819">
    <rdf:RDF>
      <cc:Work
         rdf:about="">
        <dc:format>image/svg+xml</dc:format>
        <dc:type
           rdf:resource="http://purl.org/dc/dcmitype/StillImage" />
        <dc:title />
      </cc:Work>
    </rdf:RDF>
  </metadata>
  <g
     inkscape:label="Layer 1"
     inkscape:groupmode="layer"
     id="layer1"
     transform="translate(0,-284.3)">
    <ellipse
       style="display:inline;opacity:1;fill:#aae3fd;fill-opacity:1;stroke:none;stroke-width:0.10897616;stroke-miterlimit:4;stroke-dasharray:none;stroke-opacity:1"
       id="path4506-9"
       cx="6.2808332"
       cy="290.93277"
       rx="6.097641"
       ry="6.0844975"
       inkscape:export-xdpi="306.733"
       inkscape:export-ydpi="306.733" />
    <path
       style="display:inline;fill:#aae3fd;fill-opacity:1;fill-rule:evenodd;stroke:#0093d7;stroke-width:0.19670784;stroke-linecap:butt;stroke-linejoin:miter;stroke-miterlimit:4;stroke-dasharray:none;stroke-opacity:1"
       d="m 4.7167578,294.11842 c 1.6297944,-2.99672 1.6297944,-3.10187 1.6297944,-3.10187 0,0 2.4709785,1.10406 2.8389963,0.99891 0.3680181,-0.10515 0.3154442,-0.15772 0.3154442,-0.15772 0,0 -0.9463325,3.20701 -1.4194982,3.31216 -0.4731659,0.10515 -3.3647367,-1.05148 -3.3647367,-1.05148 z"
       id="path4485-4"
       inkscape:connector-curvature="0"
       inkscape:export-xdpi="306.733"
       inkscape:export-ydpi="306.733" />
    <path
       style="display:inline;fill:#aae3fd;fill-opacity:1;fill-rule:evenodd;stroke:#0093d7;stroke-width:0.19670784;stroke-linecap:butt;stroke-linejoin:miter;stroke-miterlimit:4;stroke-dasharray:none;stroke-opacity:1"
       d="m 4.4013137,286.1551 c -0.7491797,1.77437 -1.5978697,3.19126 -1.5978697,3.19126 l 3.2670947,1.59298 1.2552045,-3.32531 z"
       id="path4487-9"
       inkscape:connector-curvature="0"
       sodipodi:nodetypes="ccccc"
       inkscape:export-xdpi="306.733"
       inkscape:export-ydpi="306.733" />
    <path
       style="display:inline;fill:#aae3fd;fill-opacity:1;fill-rule:evenodd;stroke:#0093d7;stroke-width:0.19670784;stroke-linecap:butt;stroke-linejoin:miter;stroke-miterlimit:4;stroke-dasharray:none;stroke-opacity:1"
       d="m 7.6379012,287.74054 c 2.8389968,1.68237 3.4173108,1.36692 3.4173108,1.36692 l -1.5542193,2.75028 -3.0380337,-0.88577 z"
       id="path4489-0"
       inkscape:connector-curvature="0"
       sodipodi:nodetypes="ccccc"
       inkscape:export-xdpi="306.733"
       inkscape:export-ydpi="306.733" />
    <path
       style="display:inline;fill:#aae3fd;fill-opacity:1;fill-rule:evenodd;stroke:#0093d7;stroke-width:0.19670784;stroke-linecap:butt;stroke-linejoin:miter;stroke-miterlimit:4;stroke-dasharray:none;stroke-opacity:1"
       d="m 2.7649477,289.48698 c 0,0 -1.2341352,2.70531 -1.86502343,2.70531 -0.63088807,0 3.46195903,1.84891 3.46195903,1.84891 l 1.5903636,-2.95728 z"
       id="path4491-9"
       inkscape:connector-curvature="0"
       sodipodi:nodetypes="csccc"
       inkscape:export-xdpi="306.733"
       inkscape:export-ydpi="306.733" />
    <path
       style="display:inline;fill:none;fill-rule:evenodd;stroke:#fdfdfd;stroke-width:0.05204561px;stroke-linecap:butt;stroke-linejoin:miter;stroke-opacity:1"
       d="m 8.8175307,293.37089 c -0.026337,-0.003 -0.00875,0.0306 -0.013144,0.0394 -0.00138,0.003 -0.00518,0.004 -0.00657,0.007 -0.00195,0.004 0.00138,0.009 0,0.0131 -0.015866,0.0476 0.00189,-0.0104 -0.013144,0.0197 -9.836e-4,0.002 0,0.004 0,0.007 0,0.005 0.00114,0.0371 0,0.0394 -0.00138,0.003 -0.00519,0.004 -0.00657,0.007 -9.836e-4,0.002 9.835e-4,0.005 0,0.007 -0.00277,0.006 -0.010372,0.008 -0.013144,0.0131 -0.00197,0.004 0.0031,0.01 0,0.0131 -0.00155,0.002 -0.00502,-0.002 -0.00657,0 -0.0031,0.003 0.00138,0.009 0,0.0131 -0.0031,0.009 -0.00876,0.0175 -0.013144,0.0263"
       id="path4514-1"
       inkscape:connector-curvature="0"
       inkscape:export-xdpi="306.733"
       inkscape:export-ydpi="306.733" />
    <path
       style="display:inline;fill:none;fill-rule:evenodd;stroke:#ffffff;stroke-width:0.05204561px;stroke-linecap:butt;stroke-linejoin:miter;stroke-opacity:1"
       d="m 8.7452384,293.57461 c -0.035566,0.0794 -0.039428,0.0949 -0.039428,0.15115 0,0.004 0.00138,0.009 0,0.0131 -0.00148,0.004 -0.017206,0.0147 -0.019715,0.0197 -9.836e-4,0.002 0,0.004 0,0.007 0,0.006 0.0013,0.0355 0,0.0394 -0.00398,0.0119 -0.00562,0.0122 -0.013144,0.0197 -0.00219,0.002 -0.00518,0.004 -0.00657,0.007 -9.835e-4,0.002 0,0.004 0,0.007 -0.00219,0.004 -0.00386,0.009 -0.00657,0.0131 -0.00343,0.005 -0.010372,0.008 -0.013144,0.0131 -9.835e-4,0.002 6.885e-4,0.004 0,0.007 -0.00398,0.0119 -0.00562,0.0122 -0.013144,0.0197 -0.00242,0.002 -0.025758,0.0263 -0.026287,0.0263 -0.00219,0 0,-0.004 0,-0.007"
       id="path4516-7"
       inkscape:connector-curvature="0"
       inkscape:export-xdpi="306.733"
       inkscape:export-ydpi="306.733" />
    <path
       style="display:inline;fill:none;fill-rule:evenodd;stroke:#ffffff;stroke-width:0.05204561px;stroke-linecap:butt;stroke-linejoin:miter;stroke-opacity:1"
       d="m 8.6729522,293.6929 c -0.00973,0.0113 -0.011564,0.0272 -0.019715,0.0394 -0.00343,0.005 -0.010372,0.008 -0.013144,0.0131 -0.00213,0.004 0.00213,0.0352 0,0.0394 -0.00277,0.006 -0.010372,0.008 -0.013144,0.0131 -9.836e-4,0.002 9.835e-4,0.005 0,0.007 -0.00395,0.008 -0.015772,0.0118 -0.019715,0.0197 -9.835e-4,0.002 9.836e-4,0.005 0,0.007 -0.021796,0.0218 0.0031,-0.006 -0.00657,0.0131 -0.00238,0.005 -0.013693,0.0107 -0.013144,0.0131 0.00406,0.0183 0.013142,0.035 0.019714,0.0526"
       id="path4518-7"
       inkscape:connector-curvature="0"
       inkscape:export-xdpi="306.733"
       inkscape:export-ydpi="306.733" />
    <rect
       style="display:inline;opacity:1;fill:#0093d7;fill-opacity:1;stroke:#aae3fd;stroke-width:0.25685555;stroke-miterlimit:4;stroke-dasharray:none;stroke-opacity:1"
       id="rect6249-5"
       width="9.9590359"
       height="3.0940692"
       x="206.88806"
       y="197.41634"
       ry="0.74128741"
       transform="rotate(45.612631)"
       inkscape:export-xdpi="306.733"
       inkscape:export-ydpi="306.733" />
    <rect
       style="display:inline;opacity:1;fill:#0093d7;fill-opacity:1;stroke:#aae3fd;stroke-width:0.25685555;stroke-miterlimit:4;stroke-dasharray:none;stroke-opacity:1"
       id="rect6249-0-6"
       width="9.9590359"
       height="3.0940692"
       x="193.30939"
       y="-214.19226"
       ry="0.74128741"
       transform="rotate(135.84788)"
       inkscape:export-xdpi="306.733"
       inkscape:export-ydpi="306.733" />
  </g>
</svg>
